<?xml version="1.0" encoding="iso-8859-1"?>
<!-- Generator: Adobe Illustrator 19.0.0, SVG Export Plug-In . SVG Version: 6.00 Build 0)  -->
<svg version="1.1" id="Capa_1" xmlns="http://www.w3.org/2000/svg" xmlns:xlink="http://www.w3.org/1999/xlink" x="0px" y="0px"
	 viewBox="0 0 512 512" style="enable-background:new 0 0 512 512;" xml:space="preserve">
<path style="fill:#00C2FF;" d="M427,0H85c-8.284,0-15,6.716-15,15v482c0,8.284,6.716,15,15,15h342c8.284,0,15-6.716,15-15V15
	C442,6.716,435.284,0,427,0z"/>
<path style="fill:#00B3F3;" d="M427,0H256v512h171c8.284,0,15-6.716,15-15V15C442,6.716,435.284,0,427,0z"/>
<g>
	<path style="fill:#00A5E8;" d="M316,120H196c-8.284,0-15-6.716-15-15s6.716-15,15-15h120c8.284,0,15,6.716,15,15
		S324.284,120,316,120z"/>
	<path style="fill:#00A5E8;" d="M357,230H225c-8.284,0-15-6.716-15-15s6.716-15,15-15h132c8.284,0,15,6.716,15,15
		S365.284,230,357,230z"/>
	<circle style="fill:#00A5E8;" cx="160" cy="215" r="20"/>
	<path style="fill:#00A5E8;" d="M357,315.999H225c-8.284,0-15-6.716-15-15s6.716-15,15-15h132c8.284,0,15,6.716,15,15
		S365.284,315.999,357,315.999z"/>
	<circle style="fill:#00A5E8;" cx="160" cy="301" r="20"/>
	<path style="fill:#00A5E8;" d="M357,401.998H225c-8.284,0-15-6.716-15-15s6.716-15,15-15h132c8.284,0,15,6.716,15,15
		S365.284,401.998,357,401.998z"/>
	<circle style="fill:#00A5E8;" cx="160" cy="387" r="20"/>
</g>
<g>
	<path style="fill:#0096DC;" d="M316,90h-60v30h60c8.284,0,15-6.716,15-15S324.284,90,316,90z"/>
	<path style="fill:#0096DC;" d="M357,200H256v30h101c8.284,0,15-6.716,15-15S365.284,200,357,200z"/>
	<path style="fill:#0096DC;" d="M357,285.999H256v30h101c8.284,0,15-6.716,15-15S365.284,285.999,357,285.999z"/>
	<path style="fill:#0096DC;" d="M357,371.998H256v30h101c8.284,0,15-6.716,15-15S365.284,371.998,357,371.998z"/>
</g>
<g>
</g>
<g>
</g>
<g>
</g>
<g>
</g>
<g>
</g>
<g>
</g>
<g>
</g>
<g>
</g>
<g>
</g>
<g>
</g>
<g>
</g>
<g>
</g>
<g>
</g>
<g>
</g>
<g>
</g>
</svg>
