<?xml version="1.0" encoding="iso-8859-1"?>
<!-- Generator: Adobe Illustrator 19.0.0, SVG Export Plug-In . SVG Version: 6.00 Build 0)  -->
<svg version="1.1" id="Capa_1" xmlns="http://www.w3.org/2000/svg" xmlns:xlink="http://www.w3.org/1999/xlink" x="0px" y="0px"
	 viewBox="0 0 512 512" style="enable-background:new 0 0 512 512;" xml:space="preserve">
<path style="fill:#D6D8F6;" d="M347,418h-11.396l-15.202-52.194C318.537,359.402,312.669,355,306,355H206
	c-6.669,0-12.537,4.402-14.401,10.806L176.396,418H165c-19.299,0-35,15.701-35,35s15.701,35,35,35h182c19.299,0,35-15.701,35-35
	S366.299,418,347,418z"/>
<path style="fill:#BFC4F3;" d="M347,418h-11.396l-15.202-52.194C318.537,359.402,312.669,355,306,355h-50v133h91
	c19.299,0,35-15.701,35-35S366.299,418,347,418z"/>
<path style="fill:#00C2FF;" d="M467,24H45C20.187,24,0,44.187,0,69v211c0,8.284,6.716,15,15,15h482c8.284,0,15-6.716,15-15V69
	C512,44.187,491.813,24,467,24z"/>
<path style="fill:#00B3F3;" d="M467,24H256v271h241c8.284,0,15-6.716,15-15V69C512,44.187,491.813,24,467,24z"/>
<path style="fill:#ECEDF8;" d="M512,265H0v75c0,24.853,20.147,45,45,45h422c24.853,0,45-20.147,45-45V265z"/>
<path style="fill:#D6D8F6;" d="M256,265v120h211c24.853,0,45-20.147,45-45v-75H256z"/>
<circle style="fill:#0B4EB1;" cx="256" cy="325" r="20"/>
<path style="fill:#09489F;" d="M256,305v40c11.046,0,20-8.954,20-20S267.046,305,256,305z"/>
<g>
</g>
<g>
</g>
<g>
</g>
<g>
</g>
<g>
</g>
<g>
</g>
<g>
</g>
<g>
</g>
<g>
</g>
<g>
</g>
<g>
</g>
<g>
</g>
<g>
</g>
<g>
</g>
<g>
</g>
</svg>
