<?xml version="1.0" encoding="iso-8859-1"?>
<!-- Generator: Adobe Illustrator 19.0.0, SVG Export Plug-In . SVG Version: 6.00 Build 0)  -->
<svg version="1.1" id="Capa_1" xmlns="http://www.w3.org/2000/svg" xmlns:xlink="http://www.w3.org/1999/xlink" x="0px" y="0px"
	 viewBox="0 0 512 512" style="enable-background:new 0 0 512 512;" xml:space="preserve">
<path style="fill:#FF6848;" d="M386,181h-31.123c-7.256-48.052-48.832-85-98.877-85s-91.621,36.948-98.877,85H126
	c-8.284,0-15,6.716-15,15v301c0,8.284,6.716,15,15,15h260c8.284,0,15-6.716,15-15V196C401,187.716,394.284,181,386,181z M256,246
	c-27.57,0-50-22.43-50-50s22.43-50,50-50s50,22.43,50,50S283.57,246,256,246z"/>
<path style="fill:#F74B35;" d="M386,181h-31.123c-7.256-48.052-48.832-85-98.877-85v50c27.57,0,50,22.43,50,50s-22.43,50-50,50v266
	h130c8.284,0,15-6.716,15-15V196C401,187.716,394.284,181,386,181z"/>
<path style="fill:#0B4EB1;" d="M256,176c-8.284,0-15-6.716-15-15V15c0-8.284,6.716-15,15-15s15,6.716,15,15v146
	C271,169.284,264.284,176,256,176z"/>
<path style="fill:#ECEDF8;" d="M336,271H176c-8.284,0-15,6.716-15,15v161c0,8.284,6.716,15,15,15h160c8.284,0,15-6.716,15-15V286
	C351,277.716,344.284,271,336,271z"/>
<path style="fill:#09489F;" d="M256,0v176c8.284,0,15-6.716,15-15V15C271,6.716,264.284,0,256,0z"/>
<path style="fill:#D6D8F6;" d="M336,271h-80v191h80c8.284,0,15-6.716,15-15V286C351,277.716,344.284,271,336,271z"/>
<g>
</g>
<g>
</g>
<g>
</g>
<g>
</g>
<g>
</g>
<g>
</g>
<g>
</g>
<g>
</g>
<g>
</g>
<g>
</g>
<g>
</g>
<g>
</g>
<g>
</g>
<g>
</g>
<g>
</g>
</svg>
