<?xml version="1.0" encoding="iso-8859-1"?>
<!-- Generator: Adobe Illustrator 19.0.0, SVG Export Plug-In . SVG Version: 6.00 Build 0)  -->
<svg version="1.1" id="Capa_1" xmlns="http://www.w3.org/2000/svg" xmlns:xlink="http://www.w3.org/1999/xlink" x="0px" y="0px"
	 viewBox="0 0 512.001 512.001" style="enable-background:new 0 0 512.001 512.001;" xml:space="preserve">
<path style="fill:#00A5E8;" d="M334.159,40H177.843c-8.284,0-15,6.716-15,15v35.727c0,51.367,41.791,93.158,93.158,93.158
	s93.158-41.791,93.158-93.158V55C349.159,46.716,342.443,40,334.159,40z"/>
<path style="fill:#0096DC;" d="M334.159,40h-78.158v143.885c51.367,0,93.158-41.791,93.158-93.158V55
	C349.159,46.716,342.443,40,334.159,40z"/>
<path style="fill:#00B3F3;" d="M508.689,174.79l-50.5,62.8c-4.88,6.06-13.58,7.39-20.04,3.06l-37.15-24.89V457c0,8.28-6.72,15-15,15
	H126.002c-8.28,0-15-6.72-15-15V215.76l-37.15,24.89c-6.46,4.33-15.16,3-20.04-3.06l-50.5-62.8c-4.81-5.98-4.33-14.62,1.11-20.04
	l111-110.39c0.72-0.72,1.51-1.35,2.35-1.9c2.43-1.59,5.29-2.46,8.23-2.46h70.879c7.12,0,13.26,5.01,14.69,11.99
	c3.45,16.83,22.56,29.53,44.43,29.53s40.98-12.7,44.43-29.53c1.43-6.98,7.57-11.99,14.69-11.99H386c2.94,0,5.8,0.87,8.23,2.46
	c0.84,0.55,1.63,1.18,2.35,1.9l110.999,110.39C513.019,160.17,513.499,168.81,508.689,174.79z"/>
<path style="fill:#00A5E8;" d="M507.579,154.75L396.58,44.36c-0.72-0.72-1.51-1.35-2.35-1.9C391.8,40.87,388.94,40,386,40h-70.88
	c-7.12,0-13.26,5.01-14.69,11.99c-3.45,16.83-22.56,29.53-44.43,29.53V472h129.999c8.28,0,15-6.72,15-15V215.76l37.15,24.89
	c6.46,4.33,15.16,3,20.04-3.06l50.5-62.8C513.499,168.81,513.019,160.17,507.579,154.75z"/>
<path style="fill:#00C2FF;" d="M111.002,216.81v-1.05l-37.15,24.89c-6.46,4.33-15.16,3-20.04-3.06l-50.5-62.8
	c-4.81-5.98-4.33-14.62,1.11-20.04l111-110.39c0.72-0.72,1.51-1.35,2.35-1.9C135.521,99.394,134.914,163.713,111.002,216.81z"/>
<path style="fill:#00B3F3;" d="M508.689,174.79l-50.5,62.8c-4.88,6.06-13.58,7.39-20.04,3.06l-37.15-24.89v1.05
	c-23.91-53.094-24.52-117.411-6.77-174.35c0.84,0.55,1.63,1.18,2.35,1.9l110.999,110.39
	C513.019,160.17,513.499,168.81,508.689,174.79z"/>
<g>
</g>
<g>
</g>
<g>
</g>
<g>
</g>
<g>
</g>
<g>
</g>
<g>
</g>
<g>
</g>
<g>
</g>
<g>
</g>
<g>
</g>
<g>
</g>
<g>
</g>
<g>
</g>
<g>
</g>
</svg>
