<?xml version="1.0" encoding="iso-8859-1"?>
<!-- Generator: Adobe Illustrator 19.0.0, SVG Export Plug-In . SVG Version: 6.00 Build 0)  -->
<svg version="1.1" id="Capa_1" xmlns="http://www.w3.org/2000/svg" xmlns:xlink="http://www.w3.org/1999/xlink" x="0px" y="0px"
	 viewBox="0 0 512 512" style="enable-background:new 0 0 512 512;" xml:space="preserve">
<path style="fill:#0B4EB1;" d="M457,378.366H157c-7.333,0-13.59-5.301-14.796-12.534l-46.2-277.2H15c-8.284,0-15-6.716-15-15
	s6.716-15,15-15h93.711c7.333,0,13.59,5.301,14.796,12.534l46.2,277.2H457c8.284,0,15,6.716,15,15S465.284,378.366,457,378.366z"/>
<circle style="fill:#BFC4F3;" cx="237" cy="433.369" r="20"/>
<path style="fill:#FF6848;" d="M508.7,113.981c-2.847-3.549-7.15-5.614-11.7-5.614H177.828c-4.409,0-8.595,1.94-11.445,5.304
	c-2.85,3.365-4.076,7.813-3.351,12.162l30,180c1.206,7.233,7.463,12.534,14.796,12.534H457c7.03,0,13.118-4.883,14.643-11.746
	l40-180C512.63,122.179,511.548,117.529,508.7,113.981z"/>
<path style="fill:#09489F;" d="M457,348.366H307v30h150c8.284,0,15-6.716,15-15S465.284,348.366,457,348.366z"/>
<circle style="fill:#A9AFF1;" cx="377" cy="433.369" r="20"/>
<path style="fill:#F74B35;" d="M508.7,113.981c-2.847-3.549-7.15-5.614-11.7-5.614H307v210h150c7.03,0,13.118-4.883,14.643-11.746
	l40-180C512.63,122.179,511.548,117.529,508.7,113.981z"/>
<g>
</g>
<g>
</g>
<g>
</g>
<g>
</g>
<g>
</g>
<g>
</g>
<g>
</g>
<g>
</g>
<g>
</g>
<g>
</g>
<g>
</g>
<g>
</g>
<g>
</g>
<g>
</g>
<g>
</g>
</svg>
